<svg width="55" height="51" viewBox="0 0 55 51" fill="none" xmlns="http://www.w3.org/2000/svg">
<g clip-path="url(#paint0_angular_14190_54577_clip_path)" data-figma-skip-parse="true"><g transform="matrix(6.8591e-10 0.0235 -0.0243172 -0.00115458 29.25 26.625)"><foreignObject x="-1274.82" y="-1274.82" width="2549.64" height="2549.64"><div xmlns="http://www.w3.org/1999/xhtml" style="background:conic-gradient(from 90deg,rgba(37, 18, 90, 1) 0deg,rgba(80, 39, 176, 0.32) 360deg);height:100%;width:100%;opacity:1"></div></foreignObject></g></g><path d="M10.25 1.75003V3.50003L10.2524 3.50002L10.25 1.75003ZM1.75 3.20069L1.16609 1.55098C0.467183 1.79836 0 2.4593 0 3.20069H1.75ZM1.75 43.5757H0C0 44.1436 0.27558 44.6762 0.739167 45.0042C1.20275 45.3323 1.79669 45.4149 2.33225 45.226L1.75 43.5757ZM10.25 42.125L10.2481 43.875H10.25V42.125ZM27.25 48.619L26.0828 49.923C26.7478 50.5182 27.7542 50.5177 28.4185 49.9217L27.25 48.619ZM44.25 1.75003L44.2475 3.50003H44.25V1.75003ZM52.75 3.20069H54.5C54.5 2.4593 54.0328 1.79836 53.3339 1.55098L52.75 3.20069ZM52.75 43.5757L52.1678 45.226C52.7033 45.4149 53.2972 45.3323 53.7608 45.0042C54.2244 44.6762 54.5 44.1436 54.5 43.5757H52.75ZM44.25 42.125L44.2476 43.875L44.2519 43.875L44.25 42.125ZM27.25 8.24402L28.4185 6.94133C23.4264 2.46328 16.9539 -0.00923228 10.2476 2.74181e-05L10.25 1.75003L10.2524 3.50002C16.0944 3.49196 21.7327 5.6458 26.0815 9.54672L27.25 8.24402ZM10.25 1.75003V2.57492e-05C7.06854 2.57492e-05 4.00951 0.544569 1.16609 1.55098L1.75 3.20069L2.33391 4.85041C4.80583 3.97548 7.47013 3.50003 10.25 3.50003V1.75003ZM1.75 3.20069H0V43.5757H1.75H3.5V3.20069H1.75ZM1.75 43.5757L2.33225 45.226C4.87486 44.3289 7.55185 43.8721 10.2481 43.875L10.25 42.125L10.2519 40.375C7.15775 40.3716 4.08565 40.8959 1.16775 41.9254L1.75 43.5757ZM10.25 42.125V43.875C16.3336 43.875 21.8805 46.1615 26.0828 49.923L27.25 48.619L28.4172 47.3151C23.5981 43.0016 17.2281 40.375 10.25 40.375V42.125ZM27.25 8.24402L28.4186 9.54667C32.7672 5.64557 38.4055 3.49171 44.2475 3.50002L44.25 1.75003L44.2525 2.75373e-05C37.5461 -0.00951934 31.0734 2.46305 26.0814 6.94138L27.25 8.24402ZM44.25 1.75003V3.50003C47.0299 3.50003 49.6942 3.97548 52.1661 4.85041L52.75 3.20069L53.3339 1.55098C50.4905 0.544569 47.4315 2.57492e-05 44.25 2.57492e-05V1.75003ZM52.75 3.20069H51V43.5757H52.75H54.5V3.20069H52.75ZM52.75 43.5757L53.3322 41.9254C50.4143 40.8959 47.3422 40.3716 44.2481 40.375L44.25 42.125L44.2519 43.875C46.9482 43.8721 49.6251 44.3289 52.1678 45.226L52.75 43.5757ZM44.25 42.125L44.2524 40.375C37.5461 40.3658 31.0736 42.8383 26.0815 47.3163L27.25 48.619L28.4185 49.9217C32.7673 46.0208 38.4056 43.867 44.2476 43.875L44.25 42.125ZM27.25 8.24402H25.5V48.619H27.25H29V8.24402H27.25Z" data-figma-gradient-fill="{&#34;type&#34;:&#34;GRADIENT_ANGULAR&#34;,&#34;stops&#34;:[{&#34;color&#34;:{&#34;r&#34;:0.14509804546833038,&#34;g&#34;:0.070588238537311554,&#34;b&#34;:0.35294118523597717,&#34;a&#34;:1.0},&#34;position&#34;:0.0},{&#34;color&#34;:{&#34;r&#34;:0.31372550129890442,&#34;g&#34;:0.15294118225574493,&#34;b&#34;:0.69019609689712524,&#34;a&#34;:0.31999999284744263},&#34;position&#34;:1.0}],&#34;stopsVar&#34;:[{&#34;color&#34;:{&#34;r&#34;:0.14509804546833038,&#34;g&#34;:0.070588238537311554,&#34;b&#34;:0.35294118523597717,&#34;a&#34;:1.0},&#34;position&#34;:0.0},{&#34;color&#34;:{&#34;r&#34;:0.31372550129890442,&#34;g&#34;:0.15294118225574493,&#34;b&#34;:0.69019609689712524,&#34;a&#34;:0.31999999284744263},&#34;position&#34;:1.0}],&#34;transform&#34;:{&#34;m00&#34;:1.3718209856961039e-06,&#34;m01&#34;:-48.634349822998047,&#34;m02&#34;:53.567176818847656,&#34;m10&#34;:47.0,&#34;m11&#34;:-2.3091564178466797,&#34;m12&#34;:4.2795772552490234},&#34;opacity&#34;:1.0,&#34;blendMode&#34;:&#34;NORMAL&#34;,&#34;visible&#34;:true}"/>
<defs>
<clipPath id="paint0_angular_14190_54577_clip_path"><path d="M10.25 1.75003V3.50003L10.2524 3.50002L10.25 1.75003ZM1.75 3.20069L1.16609 1.55098C0.467183 1.79836 0 2.4593 0 3.20069H1.75ZM1.75 43.5757H0C0 44.1436 0.27558 44.6762 0.739167 45.0042C1.20275 45.3323 1.79669 45.4149 2.33225 45.226L1.75 43.5757ZM10.25 42.125L10.2481 43.875H10.25V42.125ZM27.25 48.619L26.0828 49.923C26.7478 50.5182 27.7542 50.5177 28.4185 49.9217L27.25 48.619ZM44.25 1.75003L44.2475 3.50003H44.25V1.75003ZM52.75 3.20069H54.5C54.5 2.4593 54.0328 1.79836 53.3339 1.55098L52.75 3.20069ZM52.75 43.5757L52.1678 45.226C52.7033 45.4149 53.2972 45.3323 53.7608 45.0042C54.2244 44.6762 54.5 44.1436 54.5 43.5757H52.75ZM44.25 42.125L44.2476 43.875L44.2519 43.875L44.25 42.125ZM27.25 8.24402L28.4185 6.94133C23.4264 2.46328 16.9539 -0.00923228 10.2476 2.74181e-05L10.25 1.75003L10.2524 3.50002C16.0944 3.49196 21.7327 5.6458 26.0815 9.54672L27.25 8.24402ZM10.25 1.75003V2.57492e-05C7.06854 2.57492e-05 4.00951 0.544569 1.16609 1.55098L1.75 3.20069L2.33391 4.85041C4.80583 3.97548 7.47013 3.50003 10.25 3.50003V1.75003ZM1.75 3.20069H0V43.5757H1.75H3.5V3.20069H1.75ZM1.75 43.5757L2.33225 45.226C4.87486 44.3289 7.55185 43.8721 10.2481 43.875L10.25 42.125L10.2519 40.375C7.15775 40.3716 4.08565 40.8959 1.16775 41.9254L1.75 43.5757ZM10.25 42.125V43.875C16.3336 43.875 21.8805 46.1615 26.0828 49.923L27.25 48.619L28.4172 47.3151C23.5981 43.0016 17.2281 40.375 10.25 40.375V42.125ZM27.25 8.24402L28.4186 9.54667C32.7672 5.64557 38.4055 3.49171 44.2475 3.50002L44.25 1.75003L44.2525 2.75373e-05C37.5461 -0.00951934 31.0734 2.46305 26.0814 6.94138L27.25 8.24402ZM44.25 1.75003V3.50003C47.0299 3.50003 49.6942 3.97548 52.1661 4.85041L52.75 3.20069L53.3339 1.55098C50.4905 0.544569 47.4315 2.57492e-05 44.25 2.57492e-05V1.75003ZM52.75 3.20069H51V43.5757H52.75H54.5V3.20069H52.75ZM52.75 43.5757L53.3322 41.9254C50.4143 40.8959 47.3422 40.3716 44.2481 40.375L44.25 42.125L44.2519 43.875C46.9482 43.8721 49.6251 44.3289 52.1678 45.226L52.75 43.5757ZM44.25 42.125L44.2524 40.375C37.5461 40.3658 31.0736 42.8383 26.0815 47.3163L27.25 48.619L28.4185 49.9217C32.7673 46.0208 38.4056 43.867 44.2476 43.875L44.25 42.125ZM27.25 8.24402H25.5V48.619H27.25H29V8.24402H27.25Z"/></clipPath></defs>
</svg>
