<svg width="40" height="40" viewBox="0 0 40 40" fill="none" xmlns="http://www.w3.org/2000/svg">
<path d="M22.817 20.7969L24.967 28.9302C25.0124 29.0849 25.0119 29.2494 24.9656 29.4038C24.9193 29.5583 24.8292 29.6959 24.7063 29.8002C24.5833 29.9045 24.4328 29.9708 24.2729 29.9912C24.113 30.0116 23.9506 29.9852 23.8054 29.9152L20.732 28.5002C20.5036 28.3886 20.2527 28.3307 19.9985 28.331C19.7443 28.3313 19.4935 28.3898 19.2654 28.5019L16.1887 29.9185C16.0434 29.987 15.8815 30.0121 15.7223 29.9907C15.5631 29.9693 15.4136 29.9024 15.2915 29.7979C15.1695 29.6935 15.0803 29.5561 15.0345 29.4021C14.9888 29.2482 14.9885 29.0843 15.0337 28.9302L17.1837 20.7969" stroke="#521892" stroke-width="2.5" stroke-linecap="round" stroke-linejoin="round"/>
<path d="M25.0003 3.33203H10.0003C9.11627 3.33203 8.26842 3.68322 7.6433 4.30834C7.01818 4.93346 6.66699 5.78131 6.66699 6.66536V33.332C6.66699 34.2161 7.01818 35.0639 7.6433 35.6891C8.26842 36.3142 9.11627 36.6654 10.0003 36.6654H30.0003C30.8844 36.6654 31.7322 36.3142 32.3573 35.6891C32.9825 35.0639 33.3337 34.2161 33.3337 33.332V11.6654L25.0003 3.33203Z" stroke="#521892" stroke-width="2.5" stroke-linecap="round" stroke-linejoin="round"/>
<path d="M20 21.668C22.7614 21.668 25 19.4294 25 16.668C25 13.9065 22.7614 11.668 20 11.668C17.2386 11.668 15 13.9065 15 16.668C15 19.4294 17.2386 21.668 20 21.668Z" stroke="#521892" stroke-width="2.5" stroke-linecap="round" stroke-linejoin="round"/>
</svg>
