<svg width="40" height="40" viewBox="0 0 40 40" fill="none" xmlns="http://www.w3.org/2000/svg">
<path d="M10 36.6668C9.11597 36.6668 8.26812 36.3156 7.643 35.6905C7.01788 35.0654 6.66669 34.2176 6.66669 33.3335V6.66683C6.66669 5.78278 7.01788 4.93493 7.643 4.30981C8.26812 3.68469 9.11597 3.3335 10 3.3335H23.3334C23.8609 3.33265 24.3835 3.43617 24.8709 3.63812C25.3583 3.84006 25.801 4.13643 26.1734 4.51017L32.1534 10.4902C32.5281 10.8627 32.8253 11.3057 33.0278 11.7938C33.2304 12.2818 33.3342 12.8051 33.3334 13.3335V33.3335C33.3334 34.2176 32.9822 35.0654 32.357 35.6905C31.7319 36.3156 30.8841 36.6668 30 36.6668H10Z" stroke="black" stroke-width="2.5" stroke-linecap="round" stroke-linejoin="round"/>
<path d="M23.3333 3.3335V11.6668C23.3333 12.1089 23.5089 12.5328 23.8215 12.8453C24.134 13.1579 24.558 13.3335 25 13.3335H33.3333" stroke="black" stroke-width="2.5" stroke-linecap="round" stroke-linejoin="round"/>
<path d="M16.6666 15H13.3333" stroke="black" stroke-width="2.5" stroke-linecap="round" stroke-linejoin="round"/>
<path d="M26.6666 21.6665H13.3333" stroke="black" stroke-width="2.5" stroke-linecap="round" stroke-linejoin="round"/>
<path d="M26.6666 28.3335H13.3333" stroke="black" stroke-width="2.5" stroke-linecap="round" stroke-linejoin="round"/>
</svg>
